<?xml version="1.0" encoding="utf-8"?>
<!-- Generated by IcoMoon.io -->
<!DOCTYPE svg PUBLIC "-//W3C//DTD SVG 1.1//EN" "http://www.w3.org/Graphics/SVG/1.1/DTD/svg11.dtd">
<svg version="1.1" xmlns="http://www.w3.org/2000/svg" xmlns:xlink="http://www.w3.org/1999/xlink" width="32" height="32" viewBox="0 0 32 32">
<path d="M25.899 25.899c-5.467 5.467-14.332 5.467-19.799 0s-5.467-14.332 0-19.799c5.467-5.467 14.332-5.467 19.799 0s5.467 14.332 0 19.799zM27.313 4.687c-6.248-6.249-16.379-6.249-22.627 0-6.249 6.248-6.248 16.379 0 22.627s16.379 6.249 22.627 0c6.249-6.248 6.249-16.379 0-22.627zM21.713 15.049h-4.762v-4.762c0-0.526-0.426-0.952-0.953-0.952-0.525 0-0.952 0.426-0.952 0.952v4.762h-4.76c-0.526 0-0.952 0.427-0.952 0.952s0.426 0.953 0.952 0.953h4.76v4.76c0 0.526 0.427 0.952 0.953 0.952s0.952-0.426 0.952-0.952v-4.76h4.762c0.526 0 0.952-0.427 0.952-0.952 0-0.526-0.426-0.953-0.952-0.953z"></path>
</svg>
