<?xml version="1.0" encoding="utf-8"?>
<!-- Generated by IcoMoon.io -->
<!DOCTYPE svg PUBLIC "-//W3C//DTD SVG 1.1//EN" "http://www.w3.org/Graphics/SVG/1.1/DTD/svg11.dtd">
<svg version="1.1" xmlns="http://www.w3.org/2000/svg" xmlns:xlink="http://www.w3.org/1999/xlink" width="30" height="32" viewBox="0 0 30 32">
<path fill="#afd400" d="M9.954 16.72c0.085 0.546 0.309 1.079 0.686 1.549 1.189 1.48 3.415 1.763 4.972 0.632 0.762-0.554 1.221-1.345 1.352-2.181-1.072 0.362-2.257 0.565-3.506 0.565s-2.433-0.203-3.504-0.564z"></path>
<path fill="#e9f0ee" d="M1.641 28.033c0.081 0.546 0.294 1.079 0.654 1.549 1.134 1.48 3.256 1.763 4.74 0.632 0.727-0.554 1.164-1.345 1.289-2.181-1.022 0.362-2.152 0.565-3.342 0.565s-2.319-0.203-3.341-0.564z"></path>
<path fill="#e9f0ee" d="M17.995 27.622c0.031 0.253 0.112 0.499 0.248 0.717 0.43 0.685 1.235 0.816 1.798 0.293 0.276-0.256 0.441-0.622 0.489-1.009-0.388 0.167-0.816 0.261-1.267 0.261s-0.88-0.094-1.267-0.261z"></path>
<path fill="#545454" d="M13.596 20.327c2.541 0 4.601-2.058 4.601-4.596s-2.060-4.596-4.601-4.596c-2.541 0-4.601 2.058-4.601 4.596s2.060 4.596 4.601 4.596v0zM13.596 19.2c-1.919 0-3.474-1.553-3.474-3.469s1.555-3.469 3.474-3.469c1.919 0 3.474 1.553 3.474 3.469s-1.555 3.469-3.474 3.469v0z"></path>
<path fill="#545454" d="M2.695 10.111c1.426 0 2.582-1.155 2.582-2.58s-1.156-2.58-2.582-2.58c-1.426 0-2.582 1.155-2.582 2.58s1.156 2.58 2.582 2.58v0zM2.695 8.984c-0.804 0-1.455-0.651-1.455-1.453s0.651-1.453 1.455-1.453c0.804 0 1.455 0.651 1.455 1.453s-0.651 1.453-1.455 1.453v0z"></path>
<path fill="#545454" d="M4.238 9.593l5.346 4.072 0.683-0.896-5.346-4.072-0.683 0.896z"></path>
<path fill="#545454" d="M14.774 19.967l3.302 6.373 1-0.518-3.302-6.373-1.001 0.518z"></path>
<path fill="#545454" d="M16.216 12.275l4.208-8.251-1.004-0.512-4.208 8.251 1.004 0.512z"></path>
<path fill="#545454" d="M7.983 24.816l4.073-5.189-0.886-0.696-4.073 5.189 0.886 0.696z"></path>
<path fill="#545454" d="M4.983 31.887c2.392 0 4.332-1.937 4.332-4.327s-1.94-4.327-4.332-4.327c-2.392 0-4.332 1.937-4.332 4.327s1.94 4.327 4.332 4.327v0zM4.983 30.761c-1.77 0-3.205-1.433-3.205-3.2s1.435-3.2 3.205-3.2c1.77 0 3.205 1.433 3.205 3.2s-1.435 3.2-3.205 3.2v0z"></path>
<path fill="#545454" d="M17.803 16.638h7.522v-1.127h-7.522v1.127z"></path>
<path fill="#545454" d="M27.324 19.252c1.649 0 2.986-1.335 2.986-2.983s-1.337-2.983-2.986-2.983c-1.649 0-2.986 1.335-2.986 2.983s1.337 2.983 2.986 2.983v0zM27.324 18.125c-1.027 0-1.859-0.831-1.859-1.856s0.832-1.856 1.859-1.856c1.027 0 1.859 0.831 1.859 1.856s-0.832 1.856-1.859 1.856v0z"></path>
<path fill="#545454" d="M19.249 29.737c1.203 0 2.178-0.974 2.178-2.176s-0.975-2.176-2.178-2.176c-1.203 0-2.178 0.974-2.178 2.176s0.975 2.176 2.178 2.176v0zM19.249 28.61c-0.581 0-1.052-0.47-1.052-1.050s0.471-1.050 1.052-1.050c0.581 0 1.052 0.47 1.052 1.050s-0.471 1.050-1.052 1.050v0z"></path>
<path fill="#545454" d="M20.864 4.466c1.203 0 2.178-0.974 2.178-2.176s-0.975-2.176-2.178-2.176c-1.203 0-2.178 0.974-2.178 2.176s0.975 2.176 2.178 2.176v0zM20.864 3.339c-0.581 0-1.052-0.47-1.052-1.050s0.471-1.050 1.052-1.050c0.581 0 1.052 0.47 1.052 1.050s-0.471 1.050-1.052 1.050v0z"></path>
</svg>
