<?xml version="1.0" encoding="utf-8"?>
<!-- Generated by IcoMoon.io -->
<!DOCTYPE svg PUBLIC "-//W3C//DTD SVG 1.1//EN" "http://www.w3.org/Graphics/SVG/1.1/DTD/svg11.dtd">
<svg version="1.1" xmlns="http://www.w3.org/2000/svg" xmlns:xlink="http://www.w3.org/1999/xlink" width="28" height="32" viewBox="0 0 28 32">
<path fill="#e9efed" d="M0.702 27.635l0.117-4.574 8.625 4.993c0 0 9.312-3.849 9.312-3.849s8.247 0.715 8.247 0.715l-0.016 5.951-0.555 0.135-8.027-2.849-8.817 3.186-8.867-3.363-0.019-0.344z"></path>
<path fill="#97be32" d="M16.438 23.468l2.29-1.269-0.437 0.035 5.525 1.998 1.463-2.612-0.925-0.518-1.243 2.22 0.642-0.239-5.328-1.927-2.5 1.385 0.514 0.927z"></path>
<path fill="#97be32" d="M3.085 23.329l4.218-2.146-0.6-0.083 3.076 2.848 6.133-2.485 3.045-3.212-0.517 0.148 3.726 0.962 0.265-1.026-4.028-1.040-3.18 3.355 0.186-0.127-5.715 2.315 0.559 0.102-3.1-2.871-4.547 2.314 0.481 0.944z"></path>
<path fill="#97be32" d="M16.98 22.661l-1.055-1.981-0.935 0.498 1.055 1.981 0.935-0.498z"></path>
<path fill="#97be32" d="M15.87 22.708v4.046h1.060v-4.046h-1.060z"></path>
<path fill="#555" d="M1.625 27.852c-0.23-0.085-0.448-0.396-0.448-0.642v-15.877c0-0.098-0.014-0.089 0.079-0.054l8.256 3.089 9.091-3.333-0.371-0.002 7.893 3.002c0.232 0.088 0.452 0.407 0.452 0.655v15.777c0 0.1 0.014 0.090-0.078 0.056l-8.154-3.052-9.017 3.348 0.367-0.001-8.072-2.966zM1.26 28.846l8.256 3.034 9.015-3.347-0.37-0 7.969 2.982c0.785 0.294 1.509-0.21 1.509-1.048v-15.777c0-0.688-0.492-1.401-1.135-1.646l-8.077-3.072-9.093 3.333 0.368 0.001-8.072-3.020c-0.785-0.294-1.51 0.208-1.51 1.046v15.877c0 0.69 0.494 1.399 1.142 1.637v0z"></path>
<path fill="#555" d="M10.044 31.32v-17.607h-1.060v17.607h1.060z"></path>
<path fill="#555" d="M19.151 27.93v-17.484h-1.060v17.484h1.060z"></path>
<path fill="#fff" d="M6.281 18.389c0.599 0.379 1.265 0.66 1.976 0.822 0.122-0.672 0.708-1.181 1.413-1.181s1.291 0.509 1.413 1.181c0.711-0.162 1.377-0.443 1.976-0.822-0.39-0.561-0.336-1.337 0.163-1.836s1.272-0.553 1.833-0.165c0.379-0.602 0.66-1.271 0.821-1.986-0.672-0.121-1.182-0.708-1.182-1.414s0.51-1.292 1.182-1.414c-0.161-0.715-0.442-1.385-0.821-1.986-0.561 0.388-1.335 0.333-1.833-0.165s-0.553-1.275-0.163-1.836c-0.599-0.379-1.265-0.66-1.976-0.822-0.122 0.672-0.708 1.181-1.413 1.181s-1.291-0.509-1.413-1.181c-0.711 0.162-1.377 0.443-1.976 0.822 0.39 0.561 0.336 1.337-0.163 1.836s-1.272 0.553-1.833 0.165c-0.379 0.602-0.66 1.271-0.821 1.986 0.672 0.121 1.182 0.708 1.182 1.414s-0.51 1.292-1.182 1.414c0.161 0.715 0.442 1.385 0.821 1.986 0.561-0.388 1.335-0.333 1.833 0.165s0.553 1.275 0.163 1.836v0 0z"></path>
<path fill="#545454" d="M5.998 18.837c0.657 0.415 1.38 0.717 2.142 0.89 0.294 0.067 0.585-0.125 0.639-0.422 0.078-0.429 0.453-0.746 0.892-0.746s0.814 0.317 0.892 0.746c0.054 0.297 0.345 0.489 0.639 0.422 0.762-0.173 1.485-0.475 2.142-0.89 0.255-0.161 0.324-0.502 0.152-0.75-0.249-0.359-0.208-0.848 0.103-1.159s0.799-0.352 1.157-0.104c0.248 0.171 0.589 0.101 0.75-0.154 0.415-0.66 0.717-1.387 0.889-2.152 0.066-0.294-0.126-0.584-0.423-0.638-0.429-0.078-0.747-0.452-0.747-0.892s0.317-0.815 0.747-0.892c0.297-0.054 0.489-0.344 0.423-0.638-0.173-0.766-0.474-1.492-0.889-2.152-0.161-0.255-0.501-0.325-0.75-0.154-0.358 0.248-0.847 0.206-1.157-0.104s-0.352-0.801-0.103-1.159c0.172-0.248 0.103-0.589-0.152-0.75-0.657-0.415-1.38-0.717-2.142-0.89-0.294-0.067-0.585 0.125-0.639 0.422-0.078 0.429-0.453 0.746-0.892 0.746s-0.814-0.317-0.892-0.746c-0.054-0.297-0.345-0.489-0.639-0.422-0.762 0.173-1.485 0.475-2.142 0.89-0.255 0.161-0.324 0.502-0.152 0.75 0.249 0.359 0.208 0.848-0.103 1.159s-0.799 0.352-1.157 0.104c-0.248-0.171-0.589-0.101-0.75 0.154-0.415 0.66-0.717 1.387-0.889 2.152-0.066 0.294 0.126 0.584 0.423 0.638 0.429 0.078 0.747 0.452 0.747 0.892s-0.317 0.815-0.747 0.892c-0.297 0.054-0.489 0.344-0.423 0.638 0.173 0.766 0.474 1.492 0.889 2.152 0.161 0.255 0.501 0.325 0.75 0.154 0.358-0.248 0.847-0.206 1.157 0.104s0.352 0.801 0.103 1.159c-0.172 0.248-0.103 0.589 0.152 0.75v0zM6.564 17.941l0.152 0.75c0.54-0.777 0.452-1.837-0.224-2.513-0.674-0.674-1.731-0.764-2.509-0.227l0.75 0.154c-0.351-0.559-0.606-1.173-0.753-1.821l-0.423 0.638c0.931-0.168 1.618-0.98 1.618-1.935s-0.687-1.767-1.618-1.935l0.423 0.638c0.146-0.648 0.401-1.262 0.753-1.821l-0.75 0.154c0.777 0.537 1.834 0.447 2.509-0.227 0.676-0.676 0.764-1.735 0.224-2.513l-0.152 0.75c0.556-0.351 1.167-0.606 1.81-0.753l-0.639-0.422c0.169 0.93 0.98 1.616 1.935 1.616s1.765-0.686 1.935-1.616l-0.639 0.422c0.644 0.146 1.255 0.401 1.81 0.753l-0.152-0.75c-0.54 0.777-0.452 1.837 0.224 2.513 0.674 0.674 1.731 0.764 2.509 0.227l-0.75-0.154c0.351 0.559 0.606 1.173 0.753 1.821l0.423-0.638c-0.931 0.168-1.618 0.98-1.618 1.935s0.687 1.767 1.618 1.935l-0.423-0.638c-0.146 0.648-0.401 1.262-0.753 1.821l0.75-0.154c-0.777-0.537-1.834-0.447-2.509 0.227-0.676 0.676-0.764 1.735-0.224 2.513l0.152-0.75c-0.556 0.351-1.167 0.606-1.81 0.753l0.639 0.422c-0.169-0.93-0.98-1.616-1.935-1.616s-1.766 0.686-1.935 1.616l0.639-0.422c-0.644-0.146-1.255-0.401-1.81-0.753v0z"></path>
<path fill="#fff" d="M9.591 15.364c-1.264 0-2.29-1.028-2.29-2.296s1.025-2.296 2.29-2.296c1.264 0 2.29 1.028 2.29 2.296s-1.025 2.296-2.29 2.296v0 0z"></path>
<path fill="#545454" d="M9.591 14.834c-0.972 0-1.76-0.79-1.76-1.766s0.788-1.766 1.76-1.766c0.972 0 1.76 0.79 1.76 1.766s-0.788 1.766-1.76 1.766v0zM9.591 15.893c1.557 0 2.819-1.265 2.819-2.826s-1.262-2.826-2.819-2.826c-1.557 0-2.819 1.265-2.819 2.826s1.262 2.826 2.819 2.826v0z"></path>
<path fill="#fff" d="M16.033 8.053c0.383 0.241 0.81 0.42 1.265 0.524 0.078-0.428 0.454-0.753 0.906-0.753s0.828 0.325 0.906 0.753c0.455-0.103 0.882-0.282 1.265-0.524-0.247-0.358-0.21-0.853 0.109-1.172s0.815-0.355 1.173-0.108c0.241-0.382 0.421-0.807 0.524-1.261-0.428-0.078-0.753-0.454-0.753-0.906s0.325-0.827 0.753-0.906c-0.103-0.454-0.283-0.879-0.524-1.261-0.358 0.248-0.854 0.212-1.173-0.108s-0.355-0.814-0.109-1.172c-0.383-0.241-0.81-0.42-1.265-0.524-0.078 0.428-0.454 0.753-0.906 0.753s-0.828-0.325-0.906-0.753c-0.455 0.103-0.882 0.282-1.265 0.524 0.247 0.358 0.21 0.853-0.109 1.172s-0.815 0.355-1.173 0.108c-0.241 0.382-0.421 0.807-0.524 1.261 0.428 0.078 0.753 0.454 0.753 0.906s-0.325 0.827-0.753 0.906c0.103 0.454 0.283 0.879 0.524 1.261 0.358-0.248 0.854-0.212 1.173 0.108s0.355 0.814 0.109 1.172v0z"></path>
<path fill="#545454" d="M15.751 8.501c0.439 0.276 0.922 0.477 1.43 0.592 0.294 0.067 0.584-0.125 0.638-0.422 0.033-0.183 0.195-0.319 0.385-0.319s0.351 0.136 0.385 0.319c0.054 0.296 0.344 0.488 0.638 0.422 0.509-0.115 0.992-0.316 1.43-0.592 0.255-0.16 0.325-0.501 0.154-0.749-0.105-0.153-0.087-0.363 0.047-0.497s0.344-0.152 0.497-0.047c0.248 0.171 0.589 0.102 0.749-0.153 0.276-0.438 0.477-0.919 0.592-1.426 0.067-0.294-0.125-0.584-0.421-0.639-0.183-0.033-0.318-0.195-0.318-0.385s0.136-0.351 0.318-0.385c0.297-0.054 0.488-0.345 0.421-0.639-0.115-0.507-0.316-0.989-0.592-1.426-0.161-0.255-0.501-0.324-0.749-0.153-0.153 0.106-0.363 0.088-0.497-0.047s-0.152-0.344-0.047-0.497c0.171-0.248 0.101-0.589-0.154-0.749-0.439-0.276-0.922-0.477-1.43-0.592-0.294-0.067-0.584 0.125-0.638 0.422-0.033 0.183-0.195 0.319-0.385 0.319s-0.351-0.136-0.385-0.319c-0.054-0.296-0.344-0.488-0.638-0.422-0.509 0.115-0.992 0.316-1.43 0.592-0.255 0.16-0.325 0.501-0.154 0.749 0.105 0.153 0.087 0.363-0.047 0.497s-0.344 0.152-0.497 0.047c-0.248-0.171-0.589-0.102-0.749 0.153-0.276 0.438-0.477 0.919-0.592 1.426-0.067 0.294 0.125 0.584 0.421 0.639 0.183 0.033 0.318 0.195 0.318 0.385s-0.136 0.351-0.318 0.385c-0.296 0.054-0.488 0.345-0.421 0.639 0.115 0.507 0.316 0.989 0.592 1.426 0.161 0.255 0.501 0.324 0.749 0.153 0.153-0.106 0.363-0.088 0.497 0.047s0.152 0.344 0.047 0.497c-0.171 0.248-0.101 0.589 0.154 0.749v0zM16.315 7.604l-0.282 0.448 0.436 0.301c0.394-0.572 0.327-1.35-0.17-1.847s-1.277-0.565-1.849-0.169l0.301 0.436 0.448-0.283c-0.212-0.337-0.367-0.706-0.455-1.096l-0.517 0.118 0.095 0.521c0.684-0.125 1.187-0.724 1.187-1.427s-0.503-1.301-1.187-1.427l-0.095 0.521 0.517 0.118c0.089-0.39 0.243-0.76 0.455-1.096l-0.448-0.283-0.301 0.436c0.572 0.396 1.352 0.328 1.849-0.169s0.564-1.275 0.17-1.847l-0.436 0.301 0.282 0.448c0.338-0.212 0.709-0.367 1.1-0.455l-0.117-0.517-0.521 0.095c0.125 0.684 0.723 1.188 1.427 1.188s1.302-0.504 1.427-1.188l-0.521-0.095-0.117 0.517c0.391 0.089 0.763 0.243 1.1 0.455l0.282-0.448-0.436-0.301c-0.394 0.572-0.327 1.35 0.17 1.847s1.277 0.565 1.849 0.169l-0.301-0.436-0.448 0.283c0.212 0.337 0.367 0.706 0.455 1.096l0.517-0.118-0.096-0.521c-0.684 0.125-1.187 0.724-1.187 1.427s0.503 1.301 1.187 1.427l0.096-0.521-0.517-0.118c-0.089 0.39-0.243 0.76-0.455 1.096l0.448 0.283 0.301-0.436c-0.572-0.396-1.352-0.328-1.849 0.169s-0.564 1.275-0.17 1.847l0.436-0.301-0.282-0.448c-0.338 0.212-0.709 0.367-1.1 0.455l0.117 0.517 0.521-0.095c-0.125-0.684-0.723-1.188-1.427-1.188s-1.302 0.504-1.427 1.188l0.521 0.095 0.117-0.517c-0.391-0.089-0.763-0.243-1.1-0.455v0z"></path>
<path fill="#fff" d="M18.245 5.714c-0.636 0-1.151-0.514-1.151-1.149s0.515-1.149 1.151-1.149c0.636 0 1.151 0.514 1.151 1.149s-0.515 1.149-1.151 1.149v0z"></path>
<path fill="#545454" d="M18.245 5.184c-0.343 0-0.621-0.277-0.621-0.619s0.278-0.619 0.621-0.619c0.343 0 0.621 0.277 0.621 0.619s-0.278 0.619-0.621 0.619v0zM18.245 6.244c0.928 0 1.681-0.751 1.681-1.679s-0.753-1.679-1.681-1.679c-0.928 0-1.681 0.751-1.681 1.679s0.753 1.679 1.681 1.679v0z"></path>
</svg>
